<svg width="643" height="619" viewBox="0 0 643 619" fill="none" xmlns="http://www.w3.org/2000/svg">
<path fill-rule="evenodd" clip-rule="evenodd" d="M188.163 0L642.494 410.274L557.821 504.04C551.361 498.207 540.041 500.216 532.535 508.527C525.03 516.839 524.182 528.305 530.642 534.138L454.331 618.643L0.000114371 208.369L76.3108 123.864C82.7701 129.697 94.0907 127.688 101.596 119.376C109.101 111.065 109.949 99.599 103.49 93.7661L188.163 0Z" fill="#D9AEAE"/>
<line x1="189.868" y1="139.037" x2="508.27" y2="426.563" stroke="black" stroke-width="2.58967"/>
<line x1="385.923" y1="556.867" x2="569.904" y2="353.128" stroke="black" stroke-width="2.58967"/>
<line x1="71.1087" y1="272.581" x2="258.227" y2="65.3701" stroke="black" stroke-width="2.58967"/>
<path d="M553.701 391.036L556.546 390.116L554.327 388.112L553.701 391.036ZM582.778 358.449L555.071 389.133L555.455 389.48L583.163 358.797L582.778 358.449Z" fill="black"/>
<path d="M426.168 532.263L423.323 533.183L425.542 535.187L426.168 532.263ZM396.045 566.008L424.798 534.167L424.414 533.82L395.661 565.66L396.045 566.008Z" fill="black"/>
<mask id="path-7-inside-1_821_8242" fill="white">
<path fill-rule="evenodd" clip-rule="evenodd" d="M188.163 0L642.494 410.274L557.821 504.04C551.361 498.207 540.041 500.216 532.535 508.527C525.03 516.839 524.182 528.305 530.642 534.138L454.331 618.643L0.000114371 208.369L76.3108 123.864C82.7701 129.697 94.0907 127.688 101.596 119.376C109.101 111.065 109.949 99.599 103.49 93.7661L188.163 0Z"/>
</mask>
<path d="M642.494 410.274L644.416 412.009L646.152 410.087L644.23 408.352L642.494 410.274ZM188.163 0L189.899 -1.92199L187.977 -3.6576L186.241 -1.73561L188.163 0ZM557.821 504.04L556.085 505.962L558.007 507.697L559.743 505.776L557.821 504.04ZM530.642 534.138L532.564 535.873L534.299 533.951L532.377 532.216L530.642 534.138ZM454.331 618.643L452.595 620.565L454.517 622.3L456.253 620.378L454.331 618.643ZM0.000114371 208.369L-1.92187 206.633L-3.65748 208.555L-1.7355 210.291L0.000114371 208.369ZM76.3108 123.864L78.0464 121.942L76.1244 120.206L74.3888 122.128L76.3108 123.864ZM103.49 93.7661L101.568 92.0305L99.8323 93.9524L101.754 95.688L103.49 93.7661ZM644.23 408.352L189.899 -1.92199L186.428 1.92199L640.758 412.196L644.23 408.352ZM559.743 505.776L644.416 412.009L640.572 408.538L555.899 502.304L559.743 505.776ZM534.457 510.263C541.437 502.534 551.11 501.469 556.085 505.962L559.556 502.118C551.613 494.945 538.645 497.898 530.613 506.792L534.457 510.263ZM532.377 532.216C527.402 527.723 527.478 517.992 534.457 510.263L530.613 506.792C522.582 515.685 520.962 528.886 528.906 536.06L532.377 532.216ZM456.253 620.378L532.564 535.873L528.72 532.402L452.409 616.907L456.253 620.378ZM-1.7355 210.291L452.595 620.565L456.066 616.721L1.73572 206.447L-1.7355 210.291ZM74.3888 122.128L-1.92187 206.633L1.9221 210.105L78.2327 125.599L74.3888 122.128ZM99.674 117.641C92.6947 125.37 83.0215 126.434 78.0464 121.942L74.5751 125.786C82.5187 132.959 95.4867 130.006 103.518 121.112L99.674 117.641ZM101.754 95.688C106.729 100.181 106.653 109.912 99.674 117.641L103.518 121.112C111.549 112.218 113.169 99.0173 105.225 91.8441L101.754 95.688ZM186.241 -1.73561L101.568 92.0305L105.412 95.5017L190.085 1.73561L186.241 -1.73561Z" fill="black" mask="url(#path-7-inside-1_821_8242)"/>
<path d="M270.788 174.7L295.361 159.163L300.709 164.043L287.483 189.933L283.287 186.105L287.653 178.175L288.329 181.825L278.785 173.117L282.482 173.457L274.955 178.502L270.788 174.7ZM282.452 173.43L282.681 170.39L290.688 177.696L287.682 178.202L295.889 163.273L296.544 167.065L292.732 163.587L296.569 163.893L282.452 173.43ZM306.858 207.611L325.757 186.897L330.987 191.669L323.451 213.816L323.599 213.951L337.665 197.763L341.388 201.16L322.489 221.873L317.288 217.128L324.822 194.925L324.675 194.79L310.61 211.035L306.858 207.611ZM344.563 242.014L363.463 221.301L368.693 226.073L361.156 248.22L361.304 248.355L375.371 232.166L379.094 235.563L360.195 256.277L354.994 251.532L362.528 229.328L362.38 229.193L348.316 245.438L344.563 242.014ZM389.483 283.704C387.887 282.248 386.761 280.733 386.104 279.158C385.484 277.582 385.508 275.835 386.175 273.917C386.842 271.999 388.299 269.809 390.546 267.346L401.168 255.704L405.217 259.398L395.349 270.213C393.983 271.71 392.945 272.946 392.234 273.923C391.544 274.917 391.111 275.767 390.936 276.474C390.798 277.179 390.893 277.807 391.22 278.358C391.547 278.909 392.066 279.508 392.775 280.155C393.464 280.784 394.098 281.237 394.677 281.512C395.294 281.786 395.928 281.823 396.579 281.623C397.249 281.404 398.037 280.896 398.945 280.099C399.89 279.301 401.045 278.153 402.411 276.656L412.279 265.841L416.327 269.535L405.92 280.941C403.619 283.462 401.527 285.163 399.641 286.042C397.756 286.921 396.001 287.124 394.375 286.651C392.749 286.178 391.118 285.196 389.483 283.704ZM416.705 307.838L441.278 292.301L446.626 297.181L433.4 323.071L429.204 319.242L433.569 311.313L434.246 314.963L424.702 306.254L428.398 306.595L420.871 311.639L416.705 307.838ZM428.369 306.568L428.598 303.528L436.605 310.834L433.599 311.34L441.806 296.41L442.461 300.203L438.649 296.725L442.486 297.031L428.369 306.568ZM452.775 340.749L471.674 320.035L475.722 323.729L458.101 342.685L458.162 339.058L467.846 347.731L464.476 351.425L452.775 340.749Z" fill="black"/>
<rect x="196.052" y="193" width="357.971" height="108.382" rx="10" transform="rotate(42.378 196.052 193)" fill="#2A2D25" stroke="#FFD741"/>
<path d="M240.258 305.817C235.408 311.132 229.656 314.671 224.297 316.112C218.932 317.555 214.034 316.883 210.77 313.905C207.506 310.927 206.39 306.111 207.336 300.637C208.282 295.169 211.28 289.117 216.13 283.802C220.979 278.487 226.731 274.948 232.09 273.507C237.455 272.064 242.353 272.736 245.617 275.714C248.881 278.692 249.997 283.507 249.051 288.982C248.106 294.45 245.107 300.501 240.258 305.817Z" fill="#A11930" stroke="#FFD741"/>
<path d="M202.258 270.817C197.408 276.132 191.656 279.671 186.297 281.112C180.932 282.555 176.034 281.883 172.77 278.905C169.506 275.927 168.39 271.111 169.336 265.637C170.282 260.169 173.28 254.117 178.13 248.802C182.979 243.487 188.731 239.948 194.09 238.507C199.455 237.064 204.353 237.736 207.617 240.714C210.881 243.692 211.997 248.507 211.051 253.982C210.106 259.45 207.107 265.501 202.258 270.817Z" fill="#A11930" stroke="#FFD741"/>
<path d="M279.258 344.817C274.408 350.132 268.656 353.671 263.297 355.112C257.932 356.555 253.034 355.883 249.77 352.905C246.506 349.927 245.39 345.111 246.336 339.637C247.282 334.169 250.28 328.117 255.13 322.802C259.979 317.487 265.731 313.948 271.09 312.507C276.455 311.064 281.353 311.736 284.617 314.714C287.881 317.692 288.997 322.507 288.051 327.982C287.106 333.45 284.107 339.501 279.258 344.817Z" fill="#A11930" stroke="#FFD741"/>
<path d="M318.258 380.817C313.408 386.132 307.656 389.671 302.297 391.112C296.932 392.555 292.034 391.883 288.77 388.905C285.506 385.927 284.39 381.111 285.336 375.637C286.282 370.169 289.28 364.117 294.13 358.802C298.979 353.487 304.731 349.948 310.09 348.507C315.455 347.064 320.353 347.736 323.617 350.714C326.881 353.692 327.997 358.507 327.051 363.982C326.106 369.45 323.107 375.501 318.258 380.817Z" fill="#A11930" stroke="#FFD741"/>
<path d="M360.258 416.817C355.408 422.132 349.656 425.671 344.297 427.112C338.932 428.555 334.034 427.883 330.77 424.905C327.506 421.927 326.39 417.111 327.336 411.637C328.282 406.169 331.28 400.117 336.13 394.802C340.979 389.487 346.731 385.948 352.09 384.507C357.455 383.064 362.353 383.736 365.617 386.714C368.881 389.692 369.997 394.507 369.051 399.982C368.106 405.45 365.107 411.501 360.258 416.817Z" fill="#A11930" stroke="#FFD741"/>
<path d="M399.576 452.063C394.726 457.378 388.974 460.917 383.615 462.358C378.25 463.801 373.353 463.129 370.089 460.151C366.825 457.173 365.708 452.357 366.655 446.883C367.6 441.415 370.598 435.363 375.448 430.048C380.298 424.733 386.05 421.194 391.408 419.753C396.774 418.31 401.671 418.982 404.935 421.96C408.199 424.938 409.316 429.754 408.369 435.228C407.424 440.696 404.426 446.747 399.576 452.063Z" fill="#A11930" stroke="#FFD741"/>
<path d="M544.908 413.582L552.911 425.678L550.504 428.383L537.397 422.024L539.284 419.903L543.302 422.007L541.475 422.375L545.769 417.549L545.628 419.392L543.033 415.689L544.908 413.582ZM545.641 419.377L547.17 419.464L543.567 423.514L543.288 422.021L550.851 425.977L548.953 426.336L550.668 424.408L550.546 426.321L545.641 419.377ZM529.056 431.008C529.331 430.7 529.638 430.375 529.977 430.034C530.297 429.694 530.623 429.368 530.955 429.055C531.267 428.744 531.544 428.473 531.786 428.241C532.019 428.02 532.18 427.868 532.27 427.788L542.825 437.015C542.729 437.143 542.575 437.346 542.365 437.622C542.146 437.909 541.895 438.23 541.614 438.587C541.334 438.962 541.04 439.333 540.731 439.7C540.423 440.086 540.132 440.434 539.857 440.743C539.086 441.609 538.316 442.194 537.548 442.496C536.779 442.798 536.02 442.879 535.271 442.738C534.514 442.606 533.76 442.31 533.01 441.85C532.27 441.397 531.539 440.856 530.816 440.224C529.421 439.004 528.475 437.85 527.98 436.762C527.486 435.692 527.351 434.68 527.576 433.726C527.801 432.771 528.294 431.865 529.056 431.008ZM530.793 432.607C530.439 433.005 530.194 433.34 530.059 433.612C529.925 433.884 529.858 434.109 529.86 434.288C529.864 434.504 529.943 434.776 530.096 435.105C530.251 435.453 530.542 435.867 530.971 436.348C531.401 436.848 532.012 437.444 532.805 438.138C533.608 438.84 534.35 439.391 535.03 439.79C535.7 440.199 536.232 440.363 536.626 440.282C536.757 440.255 536.937 440.173 537.165 440.037C537.385 439.91 537.681 439.638 538.053 439.219C538.47 438.751 538.783 438.369 538.992 438.074C539.201 437.779 539.379 437.509 539.525 437.265L540.264 438.389L531.215 430.478L532.431 431.037C532.197 431.239 531.959 431.447 531.716 431.66C531.473 431.873 531.165 432.188 530.793 432.607ZM519.586 442.045L529.809 451.646L527.429 454.321L519.464 450.757L519.384 450.847L523.906 458.281L521.554 460.925L510.666 452.071L512.474 450.039L520.742 457.294L520.822 457.204L516.423 450.144L518.377 447.948L525.993 451.392L526.073 451.302L517.778 444.077L519.586 442.045ZM504.405 459.109L509.201 463.407L514.96 468.336L513.126 470.398L508.468 466.247L502.571 461.171L504.405 459.109ZM494.975 469.709L503.759 477.468L506.319 474.5L508.096 476.053L501.103 483.913L499.326 482.359L502.017 479.425L493.154 471.756L494.975 469.709ZM474.614 492.204C475.137 491.617 475.709 491.134 476.331 490.756C476.952 490.379 477.636 490.162 478.382 490.106C479.138 490.058 479.974 490.231 480.891 490.625C481.809 491.038 482.825 491.731 483.939 492.706C485.053 493.68 485.864 494.583 486.372 495.417C486.881 496.269 487.154 497.065 487.191 497.806C487.238 498.556 487.106 499.255 486.796 499.905C486.496 500.563 486.084 501.186 485.561 501.774C485.038 502.362 484.466 502.845 483.845 503.222C483.233 503.609 482.549 503.825 481.793 503.873C481.047 503.929 480.221 503.755 479.313 503.351C478.406 502.966 477.396 502.287 476.282 501.312C475.168 500.338 474.351 499.421 473.832 498.56C473.314 497.718 473.032 496.922 472.985 496.172C472.948 495.432 473.079 494.732 473.38 494.074C473.671 493.425 474.083 492.802 474.614 492.204ZM476.436 493.797C476.1 494.176 475.852 494.535 475.693 494.874C475.544 495.222 475.515 495.595 475.606 495.994C475.698 496.392 475.949 496.842 476.36 497.343C476.772 497.863 477.37 498.465 478.153 499.149C478.936 499.834 479.603 500.347 480.156 500.688C480.719 501.039 481.206 501.234 481.616 501.274C482.027 501.314 482.401 501.234 482.74 501.034C483.069 500.844 483.402 500.56 483.739 500.181C484.085 499.793 484.336 499.42 484.494 499.062C484.643 498.714 484.672 498.34 484.581 497.942C484.48 497.553 484.22 497.104 483.799 496.594C483.388 496.093 482.791 495.5 482.008 494.816C481.215 494.123 480.542 493.605 479.989 493.264C479.428 492.932 478.946 492.741 478.544 492.691C478.134 492.651 477.764 492.726 477.434 492.916C477.106 493.125 476.773 493.419 476.436 493.797ZM465.06 503.336L475.615 512.563L473.262 515.208L462.08 511.649L462.014 511.724L470.258 518.585L468.583 520.468L458.027 511.24L460.367 508.61L471.577 512.168L471.643 512.093L463.371 505.233L465.06 503.336ZM451.686 518.369L462.241 527.596L456.923 533.573L455.147 532.02L459.514 527.231L459.595 528.976L455.303 524.984L456.961 524.866L452.919 529.409L451.188 527.895L455.229 523.352L455.333 525.011L450.651 521.157L452.407 521.018L448.13 525.886L446.368 524.346L451.686 518.369Z" fill="black"/>
<path d="M87.8868 209.734C87.3925 210.276 86.8535 210.743 86.2698 211.135C85.7096 211.526 85.1698 211.846 84.6503 212.094C84.1307 212.342 83.7145 212.526 83.4014 212.647C83.0761 212.756 82.9135 212.811 82.9135 212.811C82.9135 212.811 82.8554 212.701 82.7392 212.482C82.623 212.264 82.4878 212.016 82.3335 211.74C82.1783 211.44 82.0487 211.187 81.9448 210.979C81.8398 210.748 81.7873 210.633 81.7873 210.633C81.7873 210.633 81.9377 210.567 82.2384 210.435C82.5391 210.303 82.9195 210.109 83.3796 209.852C83.851 209.582 84.3437 209.265 84.8579 208.899C85.3833 208.521 85.865 208.092 86.3031 207.612C86.5615 207.329 86.7391 207.085 86.8359 206.88C86.9326 206.675 86.9901 206.513 87.0083 206.394C87.0526 206.074 86.9965 205.752 86.8402 205.429C86.695 205.093 86.4132 204.734 85.9946 204.352C85.6006 203.993 85.1732 203.806 84.7125 203.792C84.2506 203.754 83.7583 203.824 83.2356 204.001C82.7005 204.167 82.1558 204.381 81.6015 204.642C81.0001 204.906 80.4037 205.151 79.8125 205.379C79.2213 205.606 78.6385 205.763 78.0644 205.848C77.4891 205.91 76.9023 205.848 76.304 205.663C75.7169 205.466 75.1155 205.087 74.4999 204.525C73.8351 203.918 73.3845 203.225 73.1483 202.446C72.9109 201.642 72.9192 200.793 73.1731 199.896C73.4147 198.988 73.9511 198.079 74.7824 197.168C75.1756 196.737 75.5765 196.347 75.9852 195.998C76.4052 195.637 76.792 195.324 77.1456 195.06C77.5105 194.784 77.808 194.581 78.038 194.453C78.267 194.301 78.3815 194.225 78.3815 194.225L79.8343 196.193C79.8343 196.193 79.7203 196.281 79.4924 196.457C79.2757 196.62 78.9855 196.852 78.6217 197.151C78.2568 197.428 77.8762 197.746 77.4798 198.106C77.0834 198.467 76.711 198.838 76.3628 199.219C76.1157 199.49 75.9375 199.722 75.8284 199.916C75.7193 200.11 75.6517 200.308 75.6256 200.509C75.5871 200.7 75.6163 200.952 75.7133 201.266C75.8092 201.557 76.048 201.876 76.4296 202.224C76.8113 202.573 77.2387 202.76 77.7118 202.785C78.1725 202.799 78.6581 202.712 79.1686 202.524C79.6903 202.323 80.2283 202.092 80.7826 201.83C81.3032 201.606 81.8535 201.386 82.4335 201.171C83.0012 200.944 83.5783 200.794 84.1648 200.72C84.7502 200.622 85.3538 200.666 85.9757 200.849C86.5976 201.033 87.2225 201.412 87.8504 201.985C88.6261 202.692 89.1403 203.489 89.3932 204.374C89.6573 205.246 89.6635 206.155 89.4118 207.098C89.159 208.018 88.6506 208.897 87.8868 209.734ZM107.89 187.811C107.025 188.759 106.111 189.414 105.148 189.777C104.186 190.139 103.117 190.112 101.942 189.694C100.765 189.252 99.4136 188.335 97.8869 186.942L90.6106 180.303L92.5821 178.142L99.3413 184.309C100.339 185.219 101.173 185.912 101.843 186.389C102.502 186.854 103.058 187.147 103.512 187.268C103.964 187.365 104.38 187.305 104.76 187.087C105.139 186.869 105.548 186.52 105.986 186.04C106.424 185.56 106.734 185.121 106.917 184.723C107.087 184.314 107.097 183.895 106.947 183.465C106.809 183.023 106.473 182.502 105.938 181.901C105.402 181.277 104.635 180.51 103.638 179.6L96.879 173.433L98.8505 171.272L105.961 177.759C107.549 179.208 108.617 180.51 109.166 181.665C109.725 182.807 109.875 183.88 109.614 184.883C109.352 185.862 108.777 186.838 107.89 187.811ZM124.579 169.037L118.7 163.537L111.652 157.242L113.64 155.062L119.298 160.36L126.549 166.841L124.579 169.037ZM140.899 151.113L129.834 140.949L126.604 144.601L124.738 142.899L133.248 133.573L135.113 135.275L131.721 138.881L142.871 148.953L140.899 151.113ZM157.264 133.178L144.355 121.4L150.724 114.419L152.59 116.121L147.26 121.85L147.193 119.995L152.504 125.079L150.814 125.262L155.751 119.851L157.561 121.503L152.624 126.914L152.615 125.18L158.384 130.207L156.531 130.309L161.768 124.495L163.633 126.197L157.264 133.178ZM175.821 112.84L169.847 107.221L162.947 101.06C163.036 100.938 163.219 100.7 163.498 100.345C163.764 99.9787 164.088 99.5628 164.467 99.0971C164.847 98.6314 165.233 98.1595 165.624 97.6815C166.026 97.1912 166.401 96.7552 166.749 96.3735C167.581 95.4625 168.435 94.7981 169.312 94.3804C170.201 93.9503 171.11 93.832 172.039 94.0254C172.968 94.2188 173.944 94.7817 174.965 95.7141C176.012 96.669 176.648 97.6663 176.872 98.706C177.084 99.7344 176.909 100.792 176.345 101.88L176.437 101.964L184.128 103.736L181.887 106.192L174.787 104.181L172.86 106.145L177.809 110.661L175.821 112.84ZM173.386 102.192C174.15 101.355 174.465 100.627 174.33 100.008C174.184 99.3777 173.704 98.6918 172.891 97.9504C172.202 97.3213 171.64 96.9105 171.207 96.718C170.773 96.5255 170.417 96.471 170.138 96.5546C169.939 96.5991 169.703 96.7338 169.43 96.9586C169.169 97.1711 168.892 97.4375 168.6 97.7576C168.139 98.2624 167.731 98.7471 167.375 99.2117C167.03 99.664 166.747 100.049 166.525 100.365L170.996 104.479C171.405 104.13 171.824 103.756 172.254 103.359C172.672 102.951 173.049 102.562 173.386 102.192ZM198.059 88.467L193.382 84.0979L181.73 80.4375L183.853 78.1106L192.317 81.333L192.419 81.2222L188.436 73.0873L190.559 70.7604L195.269 82.0295L200.048 86.2878L198.059 88.467Z" fill="black"/>
</svg>
