<svg width="24" height="24" viewBox="0 0 24 24" fill="none" xmlns="http://www.w3.org/2000/svg">
<path d="M13.5344 20H10.4678" stroke="white" stroke-width="1.5" stroke-linecap="round" stroke-linejoin="round"/>
<path d="M16.7933 10.032V10C16.7933 8.67392 16.2884 7.40215 15.3898 6.46447C14.4912 5.52678 13.2724 5 12.0016 5C10.7308 5 9.512 5.52678 8.61338 6.46447C7.71477 7.40215 7.20994 8.67392 7.20994 10V12.504C7.20986 12.6626 7.16752 12.818 7.08764 12.953C7.00776 13.0879 6.89349 13.197 6.7576 13.268L6.27556 13.519C5.91719 13.7056 5.62974 14.013 5.45983 14.3914C5.28991 14.7698 5.24751 15.1971 5.33949 15.6038C5.43147 16.0105 5.65244 16.3729 5.96657 16.6322C6.28069 16.8914 6.66953 17.0323 7.07002 17.032H16.9332C17.1729 17.1572 17.4367 17.2241 17.7048 17.2278C17.9728 17.2315 18.2382 17.1719 18.4811 17.0534C18.7239 16.9348 18.9379 16.7605 19.107 16.5434C19.2761 16.3264 19.3959 16.0722 19.4575 15.7999C19.5191 15.5277 19.5209 15.2444 19.4626 14.9713C19.4044 14.6983 19.2877 14.4425 19.1213 14.2232C18.9549 14.0038 18.7431 13.8267 18.5017 13.7049C18.2604 13.5831 17.9957 13.5199 17.7276 13.52L17.2456 13.269C17.1097 13.1977 16.9955 13.0884 16.9156 12.9533C16.8357 12.8183 16.7934 12.6627 16.7933 12.504V10.032V10.032Z" stroke="white" stroke-width="1.5" stroke-linecap="round" stroke-linejoin="round"/>
</svg>
