<svg width="24" height="24" viewBox="0 0 24 24" fill="none" xmlns="http://www.w3.org/2000/svg">
<path d="M19 21H5C4.46957 21 3.96086 20.7893 3.58579 20.4142C3.21071 20.0391 3 19.5304 3 19V5C3 4.46957 3.21071 3.96086 3.58579 3.58579C3.96086 3.21071 4.46957 3 5 3H19C19.5304 3 20.0391 3.21071 20.4142 3.58579C20.7893 3.96086 21 4.46957 21 5V19C21 19.5304 20.7893 20.0391 20.4142 20.4142C20.0391 20.7893 19.5304 21 19 21Z" stroke="#FFD741" stroke-width="1.5" stroke-linecap="round" stroke-linejoin="round"/>
<path d="M15.8889 17H8.11111C7.81643 17 7.53381 16.8829 7.32544 16.6746C7.11706 16.4662 7 16.1836 7 15.8889V8.11111C7 7.81643 7.11706 7.53381 7.32544 7.32544C7.53381 7.11706 7.81643 7 8.11111 7H15.8889C16.1836 7 16.4662 7.11706 16.6746 7.32544C16.8829 7.53381 17 7.81643 17 8.11111V15.8889C17 16.1836 16.8829 16.4662 16.6746 16.6746C16.4662 16.8829 16.1836 17 15.8889 17Z" fill="#FFD741"/>
</svg>
