<svg width="639" height="618" viewBox="0 0 639 618" fill="none" xmlns="http://www.w3.org/2000/svg">
<path fill-rule="evenodd" clip-rule="evenodd" d="M189.872 0L639 409.793L553.557 503.437C547.172 497.611 535.856 499.617 528.283 507.917C520.709 516.218 519.746 527.669 526.131 533.495L449.128 617.891L2.05182e-05 208.097L77.0038 123.702C83.3891 129.529 94.705 127.523 102.278 119.222C109.852 110.922 110.815 99.47 104.43 93.6439L189.872 0Z" fill="#C7D9AE"/>
<path d="M87.4397 202.603C86.9454 203.145 86.4064 203.612 85.8227 204.004C85.2626 204.396 84.7227 204.715 84.2032 204.963C83.6836 205.211 83.2674 205.395 82.9544 205.516C82.629 205.625 82.4664 205.68 82.4664 205.68C82.4664 205.68 82.4083 205.57 82.2921 205.352C82.1759 205.133 82.0407 204.885 81.8865 204.609C81.7312 204.31 81.6016 204.056 81.4977 203.848C81.3927 203.617 81.3402 203.502 81.3402 203.502C81.3402 203.502 81.4906 203.436 81.7913 203.304C82.092 203.172 82.4724 202.978 82.9325 202.721C83.4039 202.452 83.8967 202.134 84.4108 201.768C84.9362 201.39 85.4179 200.961 85.856 200.481C86.1144 200.198 86.292 199.954 86.3888 199.749C86.4856 199.544 86.543 199.382 86.5612 199.263C86.6055 198.943 86.5495 198.621 86.3931 198.298C86.248 197.962 85.9661 197.603 85.5475 197.222C85.1535 196.862 84.7261 196.675 84.2654 196.661C83.8035 196.623 83.3112 196.693 82.7885 196.87C82.2534 197.036 81.7087 197.25 81.1544 197.511C80.553 197.775 79.9567 198.02 79.3654 198.248C78.7742 198.476 78.1915 198.632 77.6173 198.717C77.042 198.779 76.4553 198.717 75.8569 198.532C75.2698 198.335 74.6684 197.956 74.0528 197.394C73.388 196.787 72.9375 196.094 72.7012 195.315C72.4639 194.512 72.4721 193.662 72.726 192.765C72.9676 191.858 73.504 190.948 74.3353 190.037C74.7285 189.606 75.1294 189.216 75.5382 188.867C75.9581 188.506 76.3449 188.193 76.6985 187.929C77.0634 187.653 77.3609 187.451 77.5909 187.322C77.8199 187.17 77.9344 187.094 77.9344 187.094L79.3872 189.063C79.3872 189.063 79.2732 189.15 79.0453 189.326C78.8286 189.489 78.5384 189.721 78.1746 190.021C77.8098 190.297 77.4291 190.615 77.0327 190.975C76.6363 191.336 76.264 191.707 75.9157 192.088C75.6686 192.359 75.4905 192.591 75.3814 192.785C75.2723 192.979 75.2046 193.177 75.1785 193.379C75.14 193.569 75.1693 193.821 75.2662 194.135C75.3621 194.426 75.6009 194.745 75.9826 195.094C76.3642 195.442 76.7916 195.629 77.2647 195.654C77.7254 195.669 78.211 195.581 78.7215 195.393C79.2432 195.192 79.7812 194.961 80.3355 194.7C80.8561 194.475 81.4064 194.255 81.9864 194.04C82.5541 193.813 83.1312 193.663 83.7177 193.589C84.3031 193.492 84.9067 193.535 85.5286 193.719C86.1505 193.902 86.7754 194.281 87.4033 194.854C88.179 195.561 88.6932 196.358 88.9461 197.243C89.2102 198.116 89.2164 199.024 88.9647 199.967C88.7119 200.887 88.2036 201.766 87.4397 202.603ZM107.443 180.68C106.578 181.628 105.664 182.283 104.701 182.646C103.739 183.009 102.67 182.981 101.494 182.563C100.318 182.121 98.9665 181.204 97.4398 179.811L90.1635 173.172L92.135 171.011L98.8943 177.178C99.8915 178.088 100.725 178.782 101.396 179.258C102.055 179.723 102.611 180.017 103.064 180.137C103.517 180.235 103.933 180.174 104.313 179.956C104.692 179.738 105.101 179.389 105.539 178.909C105.977 178.429 106.287 177.99 106.469 177.592C106.64 177.183 106.65 176.764 106.5 176.335C106.362 175.893 106.026 175.371 105.491 174.77C104.955 174.146 104.188 173.379 103.191 172.469L96.4319 166.302L98.4034 164.141L105.514 170.628C107.102 172.078 108.17 173.379 108.718 174.534C109.278 175.676 109.427 176.749 109.167 177.752C108.905 178.731 108.33 179.707 107.443 180.68ZM124.132 161.906L118.253 156.406L111.205 150.111L113.193 147.932L118.851 153.229L126.102 159.71L124.132 161.906ZM140.452 143.983L129.387 133.818L126.156 137.47L124.291 135.768L132.801 126.442L134.666 128.144L131.274 131.75L142.424 141.822L140.452 143.983ZM156.817 126.047L143.908 114.269L150.277 107.288L152.143 108.99L146.813 114.72L146.746 112.865L152.057 117.948L150.367 118.132L155.304 112.72L157.114 114.372L152.177 119.783L152.168 118.049L157.937 123.076L156.084 123.179L161.321 117.364L163.186 119.066L156.817 126.047ZM175.374 105.709L169.4 100.09L162.5 93.9293C162.589 93.8073 162.772 93.5688 163.051 93.214C163.317 92.8478 163.64 92.4319 164.02 91.9662C164.4 91.5005 164.785 91.0287 165.176 90.5507C165.579 90.0603 165.954 89.6244 166.302 89.2427C167.133 88.3316 167.988 87.6672 168.865 87.2495C169.754 86.8195 170.663 86.7012 171.592 86.8946C172.521 87.088 173.497 87.6509 174.518 88.5833C175.565 89.5381 176.2 90.5354 176.425 91.5751C176.637 92.6036 176.462 93.6616 175.898 94.7492L175.99 94.8334L183.681 96.6048L181.44 99.061L174.34 97.0502L172.412 99.0143L177.362 103.53L175.374 105.709ZM172.939 95.0616C173.703 94.2244 174.018 93.4963 173.883 92.8771C173.736 92.2468 173.257 91.5609 172.444 90.8195C171.755 90.1904 171.193 89.7796 170.76 89.5871C170.326 89.3946 169.97 89.3402 169.69 89.4237C169.492 89.4682 169.256 89.6029 168.983 89.8277C168.722 90.0403 168.445 90.3066 168.153 90.6267C167.692 91.1315 167.284 91.6162 166.928 92.0808C166.583 92.5331 166.299 92.9177 166.078 93.2346L170.549 97.3477C170.958 96.9987 171.377 96.6255 171.807 96.2283C172.225 95.8199 172.602 95.431 172.939 95.0616ZM197.612 81.3362L192.935 76.9671L181.282 73.3067L183.406 70.9797L191.87 74.2021L191.972 74.0913L187.989 65.9565L190.112 63.6295L194.822 74.8987L199.601 79.157L197.612 81.3362Z" fill="black"/>
<path d="M540.882 411.857L548.885 423.954L546.479 426.658L533.371 420.3L535.259 418.178L539.276 420.282L537.449 420.651L541.743 415.824L541.602 417.667L539.008 413.964L540.882 411.857ZM541.616 417.652L543.144 417.74L539.541 421.789L539.263 420.297L546.826 424.252L544.927 424.611L546.642 422.684L546.52 424.596L541.616 417.652ZM525.031 429.284C525.305 428.975 525.612 428.65 525.951 428.309C526.272 427.969 526.598 427.643 526.929 427.331C527.241 427.019 527.519 426.748 527.76 426.517C527.993 426.295 528.154 426.144 528.244 426.063L538.799 435.291C538.703 435.419 538.55 435.621 538.339 435.898C538.12 436.184 537.87 436.506 537.589 436.862C537.309 437.237 537.014 437.608 536.705 437.976C536.397 438.362 536.106 438.709 535.831 439.018C535.06 439.885 534.29 440.469 533.522 440.771C532.753 441.073 531.995 441.154 531.246 441.013C530.488 440.882 529.734 440.586 528.984 440.125C528.244 439.673 527.513 439.131 526.79 438.499C525.395 437.279 524.45 436.125 523.954 435.037C523.46 433.968 523.326 432.956 523.55 432.001C523.775 431.046 524.269 430.141 525.031 429.284ZM526.768 430.882C526.413 431.28 526.168 431.616 526.034 431.887C525.899 432.159 525.832 432.384 525.834 432.563C525.838 432.779 525.917 433.052 526.071 433.381C526.225 433.728 526.517 434.143 526.945 434.624C527.375 435.123 527.987 435.72 528.78 436.413C529.583 437.115 530.324 437.666 531.004 438.065C531.675 438.475 532.207 438.639 532.6 438.558C532.731 438.531 532.911 438.449 533.14 438.312C533.36 438.186 533.656 437.913 534.028 437.495C534.444 437.026 534.757 436.645 534.966 436.349C535.176 436.054 535.353 435.784 535.499 435.54L536.239 436.665L527.189 428.753L528.405 429.312C528.171 429.515 527.933 429.722 527.69 429.935C527.447 430.148 527.14 430.464 526.768 430.882ZM515.56 440.32L525.783 449.921L523.404 452.596L515.438 449.033L515.358 449.122L519.881 456.556L517.528 459.201L506.64 450.347L508.448 448.315L516.717 455.569L516.796 455.48L512.397 448.419L514.351 446.223L521.967 449.667L522.047 449.577L513.752 442.352L515.56 440.32ZM500.38 457.384L505.175 461.683L510.935 466.612L509.1 468.674L504.442 464.522L498.545 459.446L500.38 457.384ZM490.949 467.985L499.733 475.743L502.293 472.775L504.07 474.328L497.078 482.188L495.301 480.635L497.991 477.701L489.128 470.032L490.949 467.985ZM470.589 490.48C471.112 489.892 471.684 489.409 472.305 489.032C472.927 488.654 473.61 488.437 474.356 488.381C475.112 488.334 475.949 488.507 476.865 488.901C477.783 489.313 478.799 490.007 479.913 490.981C481.027 491.955 481.838 492.859 482.346 493.692C482.855 494.544 483.128 495.341 483.165 496.082C483.212 496.831 483.08 497.531 482.77 498.18C482.47 498.839 482.058 499.462 481.535 500.05C481.013 500.637 480.44 501.12 479.819 501.498C479.208 501.884 478.524 502.101 477.768 502.148C477.022 502.205 476.195 502.031 475.287 501.627C474.381 501.242 473.37 500.562 472.256 499.588C471.142 498.614 470.325 497.696 469.806 496.835C469.289 495.993 469.006 495.197 468.959 494.448C468.922 493.707 469.054 493.007 469.354 492.349C469.645 491.701 470.057 491.077 470.589 490.48ZM472.411 492.073C472.074 492.451 471.826 492.81 471.667 493.149C471.518 493.497 471.489 493.87 471.581 494.269C471.672 494.668 471.923 495.118 472.334 495.619C472.746 496.138 473.344 496.74 474.127 497.425C474.91 498.109 475.578 498.622 476.131 498.964C476.693 499.314 477.18 499.509 477.59 499.549C478.001 499.589 478.375 499.51 478.714 499.31C479.044 499.12 479.377 498.835 479.714 498.457C480.059 498.068 480.311 497.695 480.469 497.337C480.618 496.989 480.646 496.616 480.555 496.217C480.455 495.828 480.194 495.379 479.773 494.87C479.362 494.369 478.765 493.776 477.982 493.091C477.189 492.398 476.516 491.881 475.963 491.539C475.402 491.208 474.92 491.017 474.519 490.967C474.108 490.927 473.738 491.002 473.409 491.192C473.08 491.4 472.747 491.694 472.411 492.073ZM461.034 501.611L471.589 510.839L469.236 513.483L458.055 509.924L457.988 509.999L466.232 516.86L464.557 518.743L454.002 509.516L456.341 506.886L467.551 510.443L467.618 510.368L459.346 503.509L461.034 501.611ZM447.66 516.644L458.215 525.872L452.898 531.849L451.121 530.295L455.488 525.507L455.569 527.251L451.277 523.26L452.935 523.142L448.894 527.684L447.162 526.17L451.203 521.628L451.307 523.286L446.625 519.432L448.381 519.294L444.104 524.161L442.343 522.621L447.66 516.644Z" fill="black"/>
<path d="M254.305 159.661L273.944 139.622L279.233 144.448L271.799 160.191L271.977 160.353L287.063 151.592L292.293 156.364L274.133 177.752L270.114 174.085L284.972 157.86L284.795 157.699L270.462 166.226L266.118 162.263L273.3 147.211L273.123 147.049L258.324 163.328L254.305 159.661ZM303.211 204.988C302.049 203.927 301.1 202.772 300.363 201.522C299.626 200.273 299.214 198.904 299.127 197.417C299.058 195.91 299.435 194.25 300.258 192.438C301.119 190.625 302.547 188.625 304.542 186.438C306.537 184.251 308.38 182.666 310.072 181.683C311.801 180.698 313.41 180.18 314.899 180.131C316.406 180.062 317.807 180.347 319.101 180.986C320.412 181.606 321.65 182.446 322.812 183.506C323.974 184.566 324.924 185.722 325.66 186.971C326.415 188.202 326.827 189.57 326.896 191.077C326.983 192.564 326.605 194.205 325.762 195.999C324.957 197.791 323.557 199.781 321.562 201.967C319.567 204.154 317.696 205.75 315.949 206.755C314.239 207.758 312.631 208.294 311.124 208.363C309.635 208.412 308.235 208.127 306.923 207.508C305.63 206.906 304.393 206.066 303.211 204.988ZM306.474 201.412C307.222 202.095 307.934 202.601 308.61 202.929C309.304 203.237 310.052 203.306 310.856 203.137C311.66 202.968 312.572 202.483 313.593 201.681C314.651 200.878 315.881 199.708 317.283 198.171C318.685 196.635 319.738 195.322 320.443 194.232C321.166 193.123 321.575 192.161 321.67 191.345C321.765 190.529 321.617 189.78 321.228 189.1C320.857 188.437 320.298 187.764 319.55 187.081C318.781 186.38 318.04 185.867 317.327 185.541C316.634 185.233 315.885 185.163 315.081 185.332C314.297 185.519 313.385 186.024 312.347 186.845C311.327 187.647 310.116 188.816 308.714 190.352C307.294 191.909 306.231 193.231 305.526 194.321C304.84 195.428 304.441 196.381 304.326 197.179C304.231 197.995 304.369 198.734 304.739 199.397C305.147 200.058 305.725 200.729 306.474 201.412ZM333.213 231.658L352.113 210.945L357.343 215.717L349.806 237.864L349.954 237.998L364.021 221.81L367.744 225.207L348.844 245.92L343.644 241.175L351.178 218.972L351.03 218.837L336.966 235.082L333.213 231.658ZM373.667 268.569L389.554 251.334L383.682 246.139L386.863 242.652L402.406 256.833L399.225 260.32L393.425 254.866L377.715 272.263L373.667 268.569ZM402.651 295.015L421.551 274.301L425.599 277.995L416.584 287.638L415.997 284.72L426.959 294.723L423.971 294.378L432.779 284.546L436.827 288.24L417.928 308.954L413.88 305.26L423.162 295.265L423.778 298.209L412.816 288.207L415.775 288.525L406.699 298.708L402.651 295.015ZM440.039 329.129L458.939 308.415L462.987 312.109L445.366 331.065L445.427 327.438L455.111 336.111L451.741 339.805L440.039 329.129ZM473.355 359.527L480.319 352.073L486.138 333.232L490.452 337.169L485.365 350.341L485.542 350.503L498.194 344.232L502.508 348.169L484.279 355.686L477.463 363.274L473.355 359.527Z" fill="black"/>
<path d="M174.09 151.262L489.814 439.334" stroke="black" stroke-width="2.58967"/>
<line x1="381.469" y1="556.157" x2="567.122" y2="352.684" stroke="black" stroke-width="2.58967"/>
<line x1="69.303" y1="271.33" x2="258.12" y2="64.389" stroke="black" stroke-width="2.58967"/>
<path d="M550.601 390.574L553.451 389.669L551.242 387.653L550.601 390.574ZM579.945 358.029L551.981 388.678L552.363 389.027L580.328 358.378L579.945 358.029Z" fill="black"/>
<path d="M421.91 531.618L419.06 532.523L421.269 534.538L421.91 531.618ZM391.51 565.319L420.53 533.514L420.147 533.165L391.128 564.97L391.51 565.319Z" fill="black"/>
<mask id="path-10-inside-1_753_7711" fill="white">
<path fill-rule="evenodd" clip-rule="evenodd" d="M189.872 0L639 409.793L553.557 503.437C547.172 497.611 535.856 499.617 528.283 507.917C520.709 516.218 519.746 527.669 526.131 533.495L449.128 617.891L2.05182e-05 208.097L77.0038 123.702C83.3891 129.529 94.705 127.523 102.278 119.222C109.852 110.922 110.815 99.47 104.43 93.6439L189.872 0Z"/>
</mask>
<path d="M639 409.793L640.913 411.539L642.658 409.626L640.745 407.88L639 409.793ZM189.872 0L191.618 -1.91303L189.705 -3.65851L187.959 -1.74548L189.872 0ZM553.557 503.437L551.812 505.35L553.725 507.095L555.47 505.182L553.557 503.437ZM526.131 533.495L528.044 535.241L529.79 533.328L527.877 531.582L526.131 533.495ZM449.128 617.891L447.382 619.804L449.295 621.549L451.041 619.636L449.128 617.891ZM2.05182e-05 208.097L-1.91301 206.352L-3.65848 208.265L-1.74546 210.01L2.05182e-05 208.097ZM77.0038 123.702L78.7493 121.789L76.8362 120.044L75.0908 121.957L77.0038 123.702ZM104.43 93.6439L102.517 91.8984L100.771 93.8114L102.684 95.5569L104.43 93.6439ZM640.745 407.88L191.618 -1.91303L188.127 1.91303L637.254 411.706L640.745 407.88ZM555.47 505.182L640.913 411.539L637.087 408.048L551.644 501.691L555.47 505.182ZM530.196 509.663C533.631 505.898 537.853 503.632 541.818 502.93C545.779 502.227 549.336 503.091 551.812 505.35L555.303 501.524C551.394 497.957 546.1 496.91 540.914 497.83C535.731 498.748 530.508 501.636 526.37 506.172L530.196 509.663ZM527.877 531.582C525.401 529.323 524.216 525.86 524.553 521.851C524.891 517.839 526.761 513.427 530.196 509.663L526.37 506.172C522.231 510.707 519.833 516.172 519.392 521.417C518.951 526.666 520.477 531.842 524.386 535.409L527.877 531.582ZM451.041 619.636L528.044 535.241L524.218 531.75L447.215 616.145L451.041 619.636ZM-1.74546 210.01L447.382 619.804L450.873 615.978L1.7455 206.184L-1.74546 210.01ZM75.0908 121.957L-1.91301 206.352L1.91305 209.843L78.9168 125.448L75.0908 121.957ZM100.365 117.477C96.9304 121.242 92.7082 123.507 88.7436 124.21C84.7825 124.912 81.2255 124.049 78.7493 121.789L75.2583 125.615C79.1674 129.182 84.4611 130.229 89.6476 129.31C94.8306 128.391 100.053 125.503 104.192 120.968L100.365 117.477ZM102.684 95.5569C105.161 97.8163 106.345 101.279 106.008 105.288C105.671 109.3 103.801 113.712 100.365 117.477L104.192 120.968C108.33 116.432 110.728 110.968 111.169 105.722C111.611 100.473 110.084 95.2976 106.175 91.7308L102.684 95.5569ZM187.959 -1.74548L102.517 91.8984L106.343 95.3894L191.785 1.74548L187.959 -1.74548Z" fill="black" mask="url(#path-10-inside-1_753_7711)"/>
<rect x="186.875" y="189.516" width="357.971" height="108.382" rx="10" transform="rotate(42.378 186.875 189.516)" fill="#2A2D25" stroke="#FFD741"/>
<path d="M198.973 273.916C194.123 279.232 188.371 282.771 183.012 284.212C177.647 285.655 172.749 284.983 169.485 282.005C166.221 279.027 165.105 274.211 166.051 268.736C166.997 263.268 169.995 257.217 174.844 251.902C179.694 246.586 185.446 243.048 190.805 241.606C196.17 240.163 201.068 240.835 204.332 243.813C207.596 246.792 208.712 251.607 207.766 257.082C206.821 262.55 203.822 268.601 198.973 273.916Z" fill="#A4AC9A" stroke="#FFD741"/>
<path d="M246.83 317.582C241.98 322.898 236.228 326.437 230.869 327.878C225.504 329.321 220.607 328.649 217.343 325.671C214.079 322.693 212.962 317.877 213.909 312.402C214.854 306.934 217.852 300.883 222.702 295.568C227.552 290.252 233.304 286.714 238.662 285.272C244.028 283.829 248.925 284.501 252.189 287.479C255.453 290.458 256.57 295.273 255.623 300.748C254.678 306.216 251.68 312.267 246.83 317.582Z" fill="#A4AC9A" stroke="#FFD741"/>
<path d="M294.686 361.247C289.836 366.562 284.085 370.101 278.726 371.542C273.361 372.985 268.463 372.313 265.199 369.335C261.935 366.357 260.818 361.541 261.765 356.066C262.71 350.598 265.708 344.547 270.558 339.232C275.408 333.916 281.16 330.378 286.519 328.936C291.884 327.493 296.782 328.165 300.046 331.143C303.31 334.122 304.426 338.937 303.48 344.412C302.534 349.88 299.536 355.931 294.686 361.247Z" fill="#A4AC9A" stroke="#FFD741"/>
<path d="M342.543 404.913C337.693 410.228 331.941 413.767 326.582 415.208C321.217 416.651 316.32 415.979 313.056 413.001C309.792 410.023 308.675 405.207 309.621 399.732C310.567 394.264 313.565 388.213 318.415 382.898C323.265 377.582 329.017 374.044 334.375 372.602C339.74 371.159 344.638 371.831 347.902 374.81C351.166 377.788 352.283 382.603 351.336 388.078C350.391 393.546 347.393 399.597 342.543 404.913Z" fill="#A4AC9A" stroke="#FFD741"/>
<path d="M390.4 448.577C385.55 453.892 379.798 457.431 374.439 458.872C369.074 460.315 364.176 459.643 360.912 456.665C357.648 453.687 356.532 448.871 357.478 443.396C358.424 437.928 361.422 431.877 366.272 426.562C371.122 421.246 376.873 417.708 382.232 416.266C387.597 414.824 392.495 415.495 395.759 418.474C399.023 421.452 400.14 426.267 399.193 431.742C398.248 437.21 395.25 443.261 390.4 448.577Z" fill="#A4AC9A" stroke="#FFD741"/>
</svg>
