<svg width="135" height="130" viewBox="0 0 135 130" fill="none" xmlns="http://www.w3.org/2000/svg">
<path fill-rule="evenodd" clip-rule="evenodd" d="M33.1249 0L134.979 92.9336L120.073 109.271C118.625 107.949 116.38 108.052 115.058 109.5C113.737 110.948 113.84 113.193 115.288 114.515L101.854 129.238L1.12847e-05 36.3044L13.434 21.581C14.8821 22.9022 17.1271 22.7994 18.4483 21.3513C19.7696 19.9032 19.6668 17.6582 18.2187 16.337L33.1249 0Z" fill="#C7D9AE"/>
<path d="M16.0165 38.903C15.9177 39.0113 15.8099 39.1047 15.6931 39.1832C15.5811 39.2615 15.4731 39.3254 15.3692 39.375C15.2653 39.4246 15.1821 39.4614 15.1195 39.4855C15.0544 39.5074 15.0219 39.5183 15.0219 39.5183C15.0219 39.5183 15.0102 39.4965 14.987 39.4527C14.9638 39.4089 14.9367 39.3594 14.9059 39.3042C14.8748 39.2443 14.8489 39.1936 14.8281 39.152C14.8071 39.1058 14.7966 39.0827 14.7966 39.0827C14.7966 39.0827 14.8267 39.0695 14.8868 39.0432C14.947 39.0168 15.0231 38.978 15.1151 38.9265C15.2094 38.8727 15.3079 38.8092 15.4107 38.736C15.5158 38.6605 15.6122 38.5746 15.6998 38.4786C15.7515 38.422 15.787 38.3732 15.8063 38.3322C15.8257 38.2912 15.8372 38.2588 15.8408 38.235C15.8497 38.1709 15.8385 38.1065 15.8072 38.0419C15.7782 37.9748 15.7218 37.9031 15.6381 37.8267C15.5593 37.7548 15.4738 37.7174 15.3817 37.7145C15.2893 37.707 15.1908 37.7209 15.0863 37.7564C14.9793 37.7896 14.8703 37.8323 14.7595 37.8846C14.6392 37.9373 14.5199 37.9864 14.4017 38.0319C14.2834 38.0775 14.1669 38.1088 14.052 38.1258C13.937 38.1382 13.8196 38.1258 13.7 38.0888C13.5825 38.0494 13.4623 37.9735 13.3392 37.8612C13.2062 37.7398 13.1161 37.6012 13.0688 37.4453C13.0214 37.2847 13.023 37.1147 13.0738 36.9354C13.1221 36.7539 13.2294 36.572 13.3956 36.3898C13.4743 36.3036 13.5545 36.2256 13.6362 36.1558C13.7202 36.0835 13.7976 36.021 13.8683 35.9682C13.9413 35.913 14.0008 35.8725 14.0468 35.8468C14.0926 35.8164 14.1155 35.8012 14.1155 35.8012L14.406 36.1949C14.406 36.1949 14.3832 36.2124 14.3377 36.2476C14.2943 36.2802 14.2363 36.3265 14.1635 36.3865C14.0905 36.4417 14.0144 36.5054 13.9351 36.5774C13.8558 36.6495 13.7814 36.7237 13.7117 36.8C13.6623 36.8542 13.6267 36.9007 13.6049 36.9394C13.583 36.9782 13.5695 37.0177 13.5643 37.0581C13.5566 37.0962 13.5624 37.1466 13.5818 37.2095C13.601 37.2676 13.6488 37.3314 13.7251 37.4011C13.8014 37.4707 13.8869 37.5081 13.9815 37.5132C14.0737 37.5161 14.1708 37.4987 14.2729 37.4609C14.3772 37.4208 14.4848 37.3746 14.5957 37.3223C14.6998 37.2774 14.8099 37.2334 14.9259 37.1904C15.0394 37.1451 15.1548 37.115 15.2721 37.1002C15.3892 37.0807 15.5099 37.0893 15.6343 37.1261C15.7587 37.1628 15.8837 37.2385 16.0093 37.3531C16.1644 37.4947 16.2672 37.6539 16.3178 37.8309C16.3706 38.0055 16.3719 38.1871 16.3215 38.3758C16.271 38.5598 16.1693 38.7355 16.0165 38.903ZM20.0171 34.5184C19.8441 34.708 19.6614 34.839 19.4688 34.9116C19.2763 34.9841 19.0625 34.9785 18.8275 34.8949C18.5922 34.8066 18.3219 34.6231 18.0166 34.3445L16.5613 33.0167L16.9556 32.5846L18.3074 33.818C18.5069 34 18.6737 34.1387 18.8078 34.234C18.9395 34.3271 19.0507 34.3857 19.1415 34.4098C19.232 34.4293 19.3152 34.4172 19.3911 34.3736C19.467 34.33 19.5487 34.2602 19.6363 34.1642C19.724 34.0682 19.786 33.9804 19.8225 33.9008C19.8565 33.8191 19.8585 33.7352 19.8287 33.6493C19.801 33.5609 19.7337 33.4566 19.6268 33.3364C19.5196 33.2116 19.3663 33.0582 19.1668 32.8762L17.815 31.6427L18.2093 31.2106L19.6313 32.5081C19.9489 32.7979 20.1626 33.0583 20.2723 33.2892C20.3842 33.5177 20.4141 33.7322 20.3619 33.9328C20.3095 34.1286 20.1946 34.3238 20.0171 34.5184ZM23.3551 30.7636L22.1792 29.6636L20.7696 28.4045L21.1672 27.9687L22.2988 29.0282L23.749 30.3244L23.3551 30.7636ZM26.6191 27.1789L24.406 25.1461L23.7599 25.8764L23.3868 25.536L25.0887 23.6708L25.4618 24.0112L24.7834 24.7324L27.0134 26.7467L26.6191 27.1789ZM29.892 23.5918L27.3102 21.2361L28.5841 19.8399L28.9571 20.1803L27.8912 21.3263L27.8777 20.9553L28.9401 21.972L28.602 22.0087L29.5894 20.9265L29.9514 21.2567L28.9639 22.3389L28.9622 21.9922L30.116 22.9976L29.7454 23.0181L30.7928 21.8553L31.1659 22.1956L29.892 23.5918ZM33.6033 19.5243L32.4086 18.4004L31.0285 17.1682C31.0463 17.1438 31.083 17.0961 31.1388 17.0252C31.1921 16.9519 31.2567 16.8687 31.3326 16.7756C31.4086 16.6825 31.4857 16.5881 31.5639 16.4925C31.6443 16.3944 31.7194 16.3072 31.789 16.2309C31.9553 16.0487 32.1262 15.9158 32.3017 15.8323C32.4794 15.7463 32.6612 15.7226 32.847 15.7613C33.0328 15.8 33.2279 15.9125 33.4323 16.099C33.6416 16.29 33.7687 16.4894 33.8136 16.6974C33.8561 16.9031 33.8209 17.1147 33.7082 17.3322L33.7266 17.349L35.2647 17.7033L34.8165 18.1946L33.3966 17.7924L33.0111 18.1852L34.001 19.0884L33.6033 19.5243ZM33.1164 17.3947C33.2692 17.2272 33.3322 17.0816 33.3053 16.9578C33.2759 16.8317 33.1799 16.6945 33.0174 16.5463C32.8795 16.4204 32.7672 16.3383 32.6805 16.2998C32.5938 16.2613 32.5225 16.2504 32.4667 16.2671C32.427 16.276 32.3798 16.3029 32.3253 16.3479C32.2729 16.3904 32.2176 16.4437 32.1592 16.5077C32.067 16.6087 31.9854 16.7056 31.9141 16.7985C31.8451 16.889 31.7885 16.9659 31.7442 17.0293L32.6384 17.8519C32.7201 17.7821 32.804 17.7075 32.89 17.628C32.9736 17.5463 33.049 17.4686 33.1164 17.3947ZM38.051 14.6496L37.1156 13.7758L34.7851 13.0437L35.2097 12.5783L36.9027 13.2228L36.9229 13.2006L36.1264 11.5737L36.551 11.1083L37.493 13.3621L38.4487 14.2138L38.051 14.6496Z" fill="black"/>
<path d="M116.437 89.4095L118.031 91.8411L117.552 92.3838L114.942 91.1037L115.318 90.6779L116.118 91.1014L115.754 91.1751L116.609 90.2065L116.581 90.5767L116.064 89.8323L116.437 89.4095ZM116.584 90.5737L116.888 90.5916L116.17 91.4042L116.115 91.1044L117.621 91.9006L117.243 91.9723L117.585 91.5855L117.56 91.9696L116.584 90.5737ZM113.281 92.9065C113.335 92.8445 113.397 92.7793 113.464 92.7108C113.528 92.6426 113.593 92.5772 113.659 92.5145C113.721 92.4521 113.776 92.3977 113.824 92.3512C113.871 92.3068 113.903 92.2764 113.921 92.2602L116.023 94.116C116.003 94.1418 115.973 94.1824 115.931 94.2379C115.887 94.2954 115.838 94.3599 115.781 94.4314C115.726 94.5067 115.667 94.5812 115.606 94.6549C115.544 94.7324 115.486 94.8021 115.431 94.8641C115.278 95.038 115.125 95.1552 114.972 95.2158C114.819 95.2763 114.667 95.2923 114.518 95.2638C114.367 95.2373 114.217 95.1777 114.068 95.0849C113.921 94.994 113.775 94.8849 113.631 94.7579C113.353 94.5125 113.165 94.2805 113.066 94.0618C112.968 93.8469 112.941 93.6436 112.986 93.4519C113.031 93.2602 113.129 93.0784 113.281 92.9065ZM113.627 93.2278C113.556 93.3078 113.507 93.3751 113.48 93.4296C113.454 93.4842 113.44 93.5294 113.441 93.5653C113.441 93.6087 113.457 93.6635 113.488 93.7296C113.519 93.7994 113.577 93.8827 113.662 93.9795C113.748 94.0799 113.869 94.1999 114.027 94.3393C114.187 94.4805 114.335 94.5913 114.47 94.6717C114.604 94.754 114.71 94.7871 114.788 94.7709C114.814 94.7655 114.85 94.7491 114.896 94.7217C114.939 94.6963 114.998 94.6417 115.072 94.5577C115.155 94.4637 115.218 94.3871 115.259 94.3279C115.301 94.2686 115.336 94.2144 115.365 94.1654L115.513 94.3915L113.71 92.8004L113.953 92.9128C113.906 92.9535 113.859 92.9952 113.81 93.0379C113.762 93.0806 113.701 93.1439 113.627 93.2278ZM111.395 95.1212L113.43 97.052L112.957 97.5887L111.37 96.8712L111.354 96.8892L112.255 98.3834L111.786 98.9141L109.618 97.1332L109.978 96.7254L111.625 98.1845L111.641 98.1665L110.765 96.7474L111.154 96.3066L112.671 97.0001L112.686 96.9821L111.035 95.529L111.395 95.1212ZM108.371 98.5454L109.326 99.4099L110.473 100.401L110.108 100.815L109.18 99.9801L108.006 98.9592L108.371 98.5454ZM106.493 100.673L108.243 102.233L108.752 101.637L109.106 101.95L107.714 103.527L107.36 103.215L107.896 102.626L106.131 101.083L106.493 100.673ZM102.439 105.187C102.543 105.069 102.657 104.972 102.78 104.896C102.904 104.82 103.04 104.777 103.189 104.766C103.339 104.757 103.506 104.791 103.688 104.871C103.871 104.954 104.074 105.093 104.295 105.289C104.517 105.485 104.679 105.667 104.78 105.834C104.881 106.006 104.936 106.166 104.943 106.315C104.952 106.465 104.926 106.606 104.864 106.736C104.805 106.868 104.723 106.993 104.618 107.111C104.514 107.229 104.4 107.326 104.277 107.402C104.155 107.479 104.019 107.523 103.868 107.532C103.72 107.543 103.555 107.508 103.374 107.427C103.194 107.349 102.992 107.212 102.771 107.016C102.549 106.821 102.386 106.636 102.283 106.463C102.18 106.294 102.123 106.134 102.114 105.983C102.107 105.834 102.133 105.694 102.193 105.562C102.251 105.432 102.333 105.307 102.439 105.187ZM102.801 105.507C102.734 105.583 102.685 105.655 102.653 105.723C102.624 105.793 102.618 105.868 102.636 105.948C102.654 106.028 102.704 106.118 102.786 106.219C102.868 106.324 102.987 106.445 103.143 106.582C103.299 106.72 103.432 106.823 103.542 106.892C103.654 106.962 103.751 107.002 103.833 107.01C103.915 107.018 103.989 107.002 104.057 106.962C104.122 106.924 104.189 106.867 104.256 106.791C104.324 106.713 104.375 106.638 104.406 106.566C104.436 106.496 104.441 106.421 104.423 106.341C104.403 106.263 104.351 106.173 104.268 106.07C104.186 105.97 104.067 105.85 103.911 105.713C103.753 105.573 103.619 105.469 103.509 105.401C103.397 105.334 103.301 105.295 103.221 105.285C103.139 105.277 103.066 105.292 103 105.33C102.935 105.372 102.868 105.431 102.801 105.507ZM100.536 107.42L102.638 109.276L102.169 109.807L99.9424 109.09L99.9291 109.105L101.571 110.485L101.237 110.862L99.1352 109.007L99.6012 108.479L101.834 109.196L101.847 109.181L100.199 107.801L100.536 107.42ZM97.8723 110.437L99.9742 112.293L98.9153 113.492L98.5614 113.18L99.4312 112.219L99.4473 112.569L98.5926 111.767L98.9227 111.743L98.1179 112.655L97.773 112.35L98.5778 111.439L98.5986 111.772L97.6662 110.997L98.0159 110.969L97.1641 111.946L96.8133 111.636L97.8723 110.437Z" fill="black"/>
<path d="M46.0149 32.8043L50.9245 27.7944L52.2468 29.0009L50.3884 32.9367L50.4327 32.9771L54.2044 30.787L55.5119 31.98L50.9717 37.3269L49.967 36.4103L53.6815 32.3541L53.6372 32.3136L50.054 34.4456L48.9681 33.4547L50.7636 29.6917L50.7193 29.6513L47.0196 33.7209L46.0149 32.8043ZM58.2414 44.1359C57.9508 43.8708 57.7134 43.582 57.5292 43.2696C57.3451 42.9571 57.2421 42.615 57.2203 42.2432C57.2031 41.8665 57.2973 41.4516 57.5031 40.9986C57.7183 40.5451 58.0753 40.0451 58.574 39.4985C59.0728 38.9518 59.5337 38.5555 59.9565 38.3097C60.3888 38.0634 60.7911 37.934 61.1633 37.9217C61.5401 37.9045 61.8902 37.9757 62.2137 38.1355C62.5417 38.2904 62.8509 38.5004 63.1415 38.7655C63.4321 39.0306 63.6694 39.3194 63.8536 39.6318C64.0423 39.9394 64.1453 40.2815 64.1625 40.6582C64.1843 41.03 64.0898 41.4402 63.8791 41.8887C63.6778 42.3368 63.3278 42.8341 62.829 43.3808C62.3303 43.9274 61.8625 44.3264 61.4257 44.5776C60.9983 44.8284 60.5963 44.9624 60.2195 44.9797C59.8473 44.992 59.4972 44.9208 59.1692 44.7659C58.8461 44.6155 58.5369 44.4055 58.2414 44.1359ZM59.0569 43.2421C59.2441 43.4128 59.4221 43.5392 59.591 43.6211C59.7644 43.6981 59.9516 43.7155 60.1526 43.6732C60.3536 43.631 60.5816 43.5097 60.8367 43.3092C61.1012 43.1084 61.4087 42.8159 61.7592 42.4317C62.1097 42.0476 62.3731 41.7194 62.5494 41.447C62.7301 41.1698 62.8324 40.9291 62.8561 40.7251C62.8798 40.5211 62.8429 40.3341 62.7454 40.1639C62.6529 39.9983 62.5131 39.8301 62.3259 39.6593C62.1339 39.4841 61.9487 39.3557 61.7703 39.2742C61.5969 39.1972 61.4097 39.1798 61.2087 39.2221C61.0127 39.2688 60.7849 39.3948 60.5253 39.6002C60.2702 39.8007 59.9674 40.0929 59.6169 40.4771C59.2619 40.8661 58.9963 41.1968 58.82 41.4692C58.6487 41.746 58.5487 41.9842 58.5201 42.1837C58.4964 42.3877 58.5308 42.5725 58.6233 42.7381C58.7253 42.9034 58.8698 43.0713 59.0569 43.2421ZM65.7418 50.8035L70.4667 45.6251L71.7742 46.8181L69.8901 52.3548L69.927 52.3885L73.4437 48.3414L74.3745 49.1907L69.6496 54.3691L68.3495 53.1828L70.233 47.632L70.1961 47.5983L66.68 51.6595L65.7418 50.8035ZM75.8552 60.0312L79.8271 55.7225L78.359 54.4236L79.1544 53.5519L83.04 57.0973L82.2447 57.969L80.7949 56.6055L76.8673 60.9546L75.8552 60.0312ZM83.1013 66.6427L87.8262 61.4643L88.8382 62.3877L86.5844 64.7985L86.4378 64.069L89.1784 66.5697L88.4312 66.4835L90.6333 64.0256L91.6454 64.949L86.9205 70.1274L85.9085 69.2039L88.229 66.7051L88.3831 67.4413L85.6424 64.9407L86.3822 65.0201L84.1134 67.5661L83.1013 66.6427ZM92.4484 75.1711L97.1733 69.9927L98.1853 70.9161L93.7801 75.6552L93.7952 74.7484L96.2162 76.9168L95.3737 77.8402L92.4484 75.1711ZM100.777 82.7707L102.518 80.9072L103.973 76.1971L105.052 77.1811L103.78 80.4742L103.824 80.5147L106.987 78.9471L108.066 79.9311L103.508 81.8103L101.804 83.7076L100.777 82.7707Z" fill="black"/>
<path d="M33.8616 29.5742L105.462 94.9038" stroke="black" stroke-width="2.58967"/>
<line x1="85.7707" y1="114.563" x2="118.159" y2="79.0652" stroke="black" stroke-width="2.58967"/>
<line x1="14.9771" y1="49.9691" x2="47.9179" y2="13.8663" stroke="black" stroke-width="2.58967"/>
<path d="M116.532 86.8212L119.382 85.9159L117.173 83.9004L116.532 86.8212ZM121.494 80.9993L117.912 84.9249L118.294 85.274L121.876 81.3484L121.494 80.9993Z" fill="black"/>
<path d="M94.0808 111.428L91.2308 112.334L93.4398 114.349L94.0808 111.428ZM88.9353 117.452L92.7012 113.325L92.3186 112.975L88.5527 117.103L88.9353 117.452Z" fill="black"/>
<mask id="path-10-inside-1_753_7381" fill="white">
<path fill-rule="evenodd" clip-rule="evenodd" d="M33.1249 0L134.979 92.9336L120.073 109.271C118.625 107.949 116.38 108.052 115.058 109.5C113.737 110.948 113.84 113.193 115.288 114.515L101.854 129.238L1.12847e-05 36.3044L13.434 21.581C14.8821 22.9022 17.1271 22.7994 18.4483 21.3513C19.7696 19.9032 19.6668 17.6582 18.2187 16.337L33.1249 0Z"/>
</mask>
<path d="M134.979 92.9336L136.892 94.6791L138.637 92.7661L136.724 91.0206L134.979 92.9336ZM33.1249 0L34.8704 -1.91303L32.9573 -3.65851L31.2119 -1.74548L33.1249 0ZM120.073 109.271L118.327 111.184L120.24 112.929L121.986 111.016L120.073 109.271ZM115.288 114.515L117.201 116.26L118.947 114.347L117.033 112.602L115.288 114.515ZM101.854 129.238L100.109 131.151L102.022 132.897L103.767 130.984L101.854 129.238ZM1.12847e-05 36.3044L-1.91301 34.5589L-3.6585 36.4719L-1.74547 38.2174L1.12847e-05 36.3044ZM13.434 21.581L15.1795 19.6679L13.2664 17.9224L11.521 19.8355L13.434 21.581ZM18.2187 16.337L16.3057 14.5915L14.5602 16.5045L16.4732 18.25L18.2187 16.337ZM136.724 91.0206L34.8704 -1.91303L31.3794 1.91303L133.233 94.8467L136.724 91.0206ZM121.986 111.016L136.892 94.6791L133.066 91.1882L118.16 107.525L121.986 111.016ZM116.971 111.246C117.329 110.854 117.936 110.826 118.327 111.184L121.818 107.358C119.314 105.072 115.431 105.25 113.145 107.755L116.971 111.246ZM117.033 112.602C116.642 112.244 116.614 111.637 116.971 111.246L113.145 107.755C110.86 110.259 111.038 114.142 113.543 116.428L117.033 112.602ZM103.767 130.984L117.201 116.26L113.375 112.769L99.941 127.493L103.767 130.984ZM-1.74547 38.2174L100.109 131.151L103.6 127.325L1.74549 34.3914L-1.74547 38.2174ZM11.521 19.8355L-1.91301 34.5589L1.91304 38.0499L15.347 23.3264L11.521 19.8355ZM16.5353 19.6058C16.178 19.9974 15.571 20.0252 15.1795 19.6679L11.6885 23.494C14.1931 25.7792 18.0761 25.6014 20.3613 23.0968L16.5353 19.6058ZM16.4732 18.25C16.8648 18.6073 16.8926 19.2143 16.5353 19.6058L20.3613 23.0968C22.6466 20.5922 22.4688 16.7092 19.9642 14.424L16.4732 18.25ZM31.2119 -1.74548L16.3057 14.5915L20.1317 18.0825L35.0379 1.74548L31.2119 -1.74548Z" fill="black" mask="url(#path-10-inside-1_753_7381)"/>
<rect x="37.4537" y="37.4883" width="81.1814" height="18.9082" rx="9.45409" transform="rotate(42.378 37.4537 37.4883)" fill="#2A2D25" stroke="#FFD741"/>
<path d="M41.8228 54.2726C40.2363 56.0113 37.903 56.2422 36.6111 55.0634C35.3191 53.8846 35.3357 51.5399 36.9222 49.8012C38.5086 48.0625 40.8419 47.8316 42.1339 49.0104C43.4258 50.1892 43.4092 52.5339 41.8228 54.2726Z" fill="#A4AC9A" stroke="#FFD741"/>
<path d="M52.6761 64.1769C51.0896 65.9156 48.7563 66.1465 47.4643 64.9677C46.1724 63.7889 46.189 61.4442 47.7755 59.7055C49.3619 57.9668 51.6952 57.7359 52.9872 58.9147C54.2791 60.0935 54.2625 62.4382 52.6761 64.1769Z" fill="#A4AC9A" stroke="#FFD741"/>
<path d="M63.529 74.0793C61.9425 75.818 59.6092 76.0488 58.3172 74.87C57.0253 73.6912 57.0419 71.3466 58.6284 69.6078C60.2148 67.8691 62.5481 67.6383 63.8401 68.8171C65.132 69.9959 65.1154 72.3405 63.529 74.0793Z" fill="#A4AC9A" stroke="#FFD741"/>
<path d="M74.382 83.9816C72.7955 85.7203 70.4622 85.9512 69.1703 84.7724C67.8783 83.5936 67.8949 81.2489 69.4814 79.5102C71.0678 77.7714 73.4011 77.5406 74.6931 78.7194C75.9851 79.8982 75.9684 82.2429 74.382 83.9816Z" fill="#A4AC9A" stroke="#FFD741"/>
<path d="M85.235 93.8839C83.6486 95.6227 81.3153 95.8535 80.0233 94.6747C78.7313 93.4959 78.748 91.1513 80.3344 89.4125C81.9209 87.6738 84.2542 87.443 85.5461 88.6218C86.8381 89.8006 86.8215 92.1452 85.235 93.8839Z" fill="#A4AC9A" stroke="#FFD741"/>
</svg>
