<svg width="40" height="40" viewBox="0 0 40 40" fill="none" xmlns="http://www.w3.org/2000/svg">
<path d="M32.75 15.584C32.75 15.1698 32.4142 14.834 32 14.834C31.5858 14.834 31.25 15.1698 31.25 15.584H32.75ZM5.60565 27.1416C5.36134 26.8071 4.89213 26.734 4.55764 26.9783C4.22314 27.2226 4.15004 27.6919 4.39435 28.0263L5.60565 27.1416ZM4.87257 26.8449C4.46438 26.9153 4.19053 27.3032 4.2609 27.7114C4.33128 28.1196 4.71924 28.3935 5.12743 28.3231L4.87257 26.8449ZM9.5 26.084L9.73829 26.7951C9.98386 26.7128 10.1696 26.5097 10.2296 26.2577C10.2896 26.0058 10.2154 25.7407 10.0332 25.5566L9.5 26.084ZM8 8.08398L8.66058 7.72883C8.53797 7.50077 8.30639 7.35209 8.04798 7.33552C7.78958 7.31895 7.54091 7.43685 7.39018 7.64738L8 8.08398ZM17 15.584L16.8229 16.3128C17.0422 16.3661 17.2739 16.3178 17.4537 16.1812C17.6334 16.0446 17.7421 15.8344 17.7496 15.6088L17 15.584ZM30.5 11.084L29.8738 11.4968C30.0126 11.7073 30.2479 11.834 30.5 11.834V11.084ZM35 11.084L35.624 11.5C35.7775 11.2699 35.7918 10.974 35.6613 10.7301C35.5307 10.4862 35.2766 10.334 35 10.334V11.084ZM31.376 15.168C31.1462 15.5126 31.2393 15.9783 31.584 16.208C31.9286 16.4378 32.3943 16.3447 32.624 16L31.376 15.168ZM31.25 15.584C31.25 20.696 29.7901 25.005 27.1251 28.0253C24.4704 31.0339 20.5593 32.834 15.5 32.834V34.334C20.9407 34.334 25.2796 32.3841 28.2499 29.0177C31.2099 25.663 32.75 20.972 32.75 15.584H31.25ZM15.5 32.834C12.6446 32.834 10.6969 32.0933 9.21884 31.0474C7.71787 29.9853 6.65672 28.5807 5.60565 27.1416L4.39435 28.0263C5.43828 29.4556 6.62713 31.051 8.35241 32.2718C10.1006 33.5089 12.3554 34.334 15.5 34.334V32.834ZM5.12743 28.3231C5.16559 28.3165 5.19638 28.3079 5.19656 28.3078C5.20532 28.3055 5.21263 28.3034 5.21676 28.3021C5.22545 28.2996 5.23389 28.297 5.24031 28.295C5.25381 28.2908 5.27054 28.2854 5.28892 28.2795C5.32625 28.2674 5.37817 28.2505 5.44171 28.2295C5.56916 28.1876 5.74789 28.1284 5.96014 28.0578C6.38485 27.9166 6.94629 27.7292 7.50585 27.5422C8.0655 27.3552 8.6236 27.1684 9.04177 27.0284C9.25086 26.9584 9.42498 26.9001 9.54683 26.8593C9.60776 26.8389 9.65561 26.8228 9.68824 26.8119C9.70456 26.8064 9.71707 26.8022 9.7255 26.7994C9.72971 26.798 9.73291 26.7969 9.73505 26.7962C9.73612 26.7958 9.73693 26.7956 9.73747 26.7954C9.73774 26.7953 9.73795 26.7952 9.73808 26.7952C9.73815 26.7952 9.7382 26.7952 9.73824 26.7951C9.73827 26.7951 9.73829 26.7951 9.5 26.084C9.26171 25.3728 9.26169 25.3729 9.26166 25.3729C9.26163 25.3729 9.26158 25.3729 9.26151 25.3729C9.26138 25.373 9.26117 25.373 9.2609 25.3731C9.26037 25.3733 9.25956 25.3736 9.25849 25.3739C9.25636 25.3746 9.25317 25.3757 9.24896 25.3771C9.24054 25.3799 9.22804 25.3841 9.21174 25.3896C9.17914 25.4005 9.13131 25.4165 9.07042 25.4369C8.94863 25.4777 8.77458 25.536 8.56557 25.606C8.14754 25.7459 7.58971 25.9326 7.0304 26.1195C6.47101 26.3065 5.91046 26.4936 5.4869 26.6344C5.275 26.7048 5.09801 26.7635 4.97277 26.8047C4.90995 26.8254 4.86127 26.8413 4.82809 26.852C4.81121 26.8575 4.80019 26.861 4.79401 26.8629C4.79059 26.864 4.7912 26.8638 4.79416 26.8629C4.79541 26.8625 4.80037 26.8611 4.80731 26.8592C4.81079 26.8583 4.81716 26.8566 4.8253 26.8546C4.83113 26.8532 4.84911 26.8489 4.87257 26.8449L5.12743 28.3231ZM10.0332 25.5566C5.28541 20.7566 4.92817 13.6629 8.60982 8.52059L7.39018 7.64738C3.29183 13.3717 3.69459 21.2813 8.96678 26.6114L10.0332 25.5566ZM7.33942 8.43914C9.25749 12.0067 12.8552 15.3485 16.8229 16.3128L17.1771 14.8552C13.7248 14.0162 10.4325 11.0246 8.66058 7.72883L7.33942 8.43914ZM17.7496 15.6088C17.8158 13.6061 18.5248 11.917 19.6829 10.7335C20.837 9.5542 22.4784 8.83398 24.5 8.83398V7.33398C22.1033 7.33398 20.0663 8.1971 18.6108 9.68442C17.1594 11.1676 16.3275 13.2285 16.2504 15.5592L17.7496 15.6088ZM24.5 8.83398C25.9073 8.83398 26.9754 9.10156 27.8169 9.55065C28.6568 9.99889 29.3174 10.6527 29.8738 11.4968L31.1262 10.6712C30.4609 9.66196 29.6257 8.81575 28.5231 8.22731C27.4221 7.63974 26.101 7.33398 24.5 7.33398V8.83398ZM30.5 11.834H35V10.334H30.5V11.834ZM34.376 10.668L31.376 15.168L32.624 16L35.624 11.5L34.376 10.668Z" fill="white"/>
</svg>
