<svg width="24" height="24" viewBox="0 0 24 24" fill="none" xmlns="http://www.w3.org/2000/svg">
<g clip-path="url(#clip0_442_20976)">
<path d="M12.0003 22C17.2931 22 21.5837 17.5228 21.5837 12C21.5837 6.47715 17.2931 2 12.0003 2C6.7076 2 2.41699 6.47715 2.41699 12C2.41699 17.5228 6.7076 22 12.0003 22Z" fill="#F0F0F0"/>
<path d="M4.39799 5.91211C3.64521 6.9341 3.07758 8.11203 2.74707 9.39168H7.73258L4.39799 5.91211Z" fill="#0052B4"/>
<path d="M21.253 9.39164C20.9225 8.11203 20.3548 6.9341 19.6021 5.91211L16.2676 9.39164H21.253Z" fill="#0052B4"/>
<path d="M2.74707 14.6094C3.07762 15.889 3.64525 17.0669 4.39799 18.0889L7.73246 14.6094H2.74707Z" fill="#0052B4"/>
<path d="M17.8346 4.06746C16.8551 3.28195 15.7263 2.68965 14.5 2.34473V7.54695L17.8346 4.06746Z" fill="#0052B4"/>
<path d="M6.16602 19.9326C7.14542 20.7181 8.27427 21.3104 9.50057 21.6553V16.4531L6.16602 19.9326Z" fill="#0052B4"/>
<path d="M9.50053 2.34473C8.27424 2.68965 7.14539 3.28195 6.16602 4.06742L9.50053 7.54691V2.34473Z" fill="#0052B4"/>
<path d="M14.5 21.6553C15.7263 21.3104 16.8551 20.7181 17.8345 19.9326L14.5 16.4531V21.6553Z" fill="#0052B4"/>
<path d="M16.2676 14.6094L19.6021 18.0889C20.3548 17.067 20.9225 15.889 21.253 14.6094H16.2676Z" fill="#0052B4"/>
<path d="M21.5025 10.6957H13.2504H13.2504V2.08465C12.8412 2.02906 12.424 2 12.0003 2C11.5766 2 11.1595 2.02906 10.7503 2.08465V10.6956V10.6956H2.49811C2.44484 11.1226 2.41699 11.5579 2.41699 12C2.41699 12.4421 2.44484 12.8774 2.49811 13.3043H10.7503H10.7503V21.9154C11.1595 21.9709 11.5766 22 12.0003 22C12.424 22 12.8412 21.971 13.2503 21.9154V13.3044V13.3044H21.5025C21.5558 12.8774 21.5837 12.4421 21.5837 12C21.5837 11.5579 21.5558 11.1226 21.5025 10.6957V10.6957Z" fill="#D80027"/>
<path d="M14.5 14.6084L18.7764 19.0708C18.9731 18.8656 19.1607 18.6511 19.3397 18.4288L15.6785 14.6084H14.5V14.6084Z" fill="#D80027"/>
<path d="M9.50008 14.6084H9.50001L5.22363 19.0707C5.42024 19.2759 5.6258 19.4717 5.83888 19.6585L9.50008 15.838V14.6084Z" fill="#D80027"/>
<path d="M9.49989 9.39117V9.39109L5.22348 4.92871C5.02679 5.13387 4.83917 5.34836 4.66016 5.5707L8.3214 9.39113H9.49989V9.39117Z" fill="#D80027"/>
<path d="M14.5 9.39102L18.7765 4.92859C18.5798 4.72336 18.3743 4.52758 18.1612 4.34082L14.5 8.16126V9.39102Z" fill="#D80027"/>
</g>
<defs>
<clipPath id="clip0_442_20976">
<rect width="19.1667" height="20" fill="white" transform="translate(2.41699 2)"/>
</clipPath>
</defs>
</svg>
