<svg width="40" height="40" viewBox="0 0 40 40" fill="none" xmlns="http://www.w3.org/2000/svg">
<path fill-rule="evenodd" clip-rule="evenodd" d="M35.9713 10.6216C35.5897 8.94828 34.4597 7.62828 33.023 7.17495C30.4247 6.36328 19.9997 6.36328 19.9997 6.36328C19.9997 6.36328 9.57968 6.36328 6.97634 7.17495C5.54467 7.62161 4.41467 8.94161 4.02801 10.6216C3.33301 13.6583 3.33301 19.9999 3.33301 19.9999C3.33301 19.9999 3.33301 26.3416 4.02801 29.3783C4.40967 31.0516 5.53967 32.3716 6.97634 32.8249C9.57968 33.6366 19.9997 33.6366 19.9997 33.6366C19.9997 33.6366 30.4247 33.6366 33.023 32.8249C34.4547 32.3783 35.5847 31.0583 35.9713 29.3783C36.6663 26.3416 36.6663 19.9999 36.6663 19.9999C36.6663 19.9999 36.6663 13.6583 35.9713 10.6216Z" stroke="white" stroke-width="1.5" stroke-linecap="round" stroke-linejoin="round"/>
<path fill-rule="evenodd" clip-rule="evenodd" d="M16.6699 25L25.3299 20L16.6699 15V25Z" stroke="white" stroke-width="1.5" stroke-linecap="round" stroke-linejoin="round"/>
</svg>
